HIERARCHY
ROOT Pelvis
{
	OFFSET 0.000000 0.000000 0.000000
	CHANNELS 6 Xposition Yposition Zposition Xrotation Yrotation Zrotation
	JOINT LeftUpLeg_virtual
	{
		OFFSET 0.000000 0.000000 0.000000
		CHANNELS 3 Xrotation Yrotation Zrotation
		JOINT LeftUpLeg
		{
			OFFSET 8.479700 -4.795502 -0.379100
			CHANNELS 3 Xrotation Yrotation Zrotation
			JOINT LeftLeg
			{
				OFFSET 0.024144 -32.555107 0.112900
				CHANNELS 3 Xrotation Yrotation Zrotation
				JOINT LeftFoot
				{
					OFFSET -0.024144 -32.638630 -3.012600
					CHANNELS 3 Xrotation Yrotation Zrotation
					JOINT LeftToeBase
					{
						OFFSET 0.970200 -13.225400 11.864200
						CHANNELS 3 Xrotation Yrotation Zrotation
						End Site
						{
							OFFSET 0 0 0
						}
					}
				}
			}
		}
	}
	JOINT RightUpLeg_virtual
	{
		OFFSET 0.000000 0.000000 0.000000
		CHANNELS 3 Xrotation Yrotation Zrotation
		JOINT RightUpLeg
		{
			OFFSET -8.479700 -4.795502 -0.379100
			CHANNELS 3 Xrotation Yrotation Zrotation
			JOINT RightLeg
			{
				OFFSET -0.023144 -32.555092 0.112900
				CHANNELS 3 Xrotation Yrotation Zrotation
				JOINT RightFoot
				{
					OFFSET 0.023144 -32.638641 -3.012700
					CHANNELS 3 Xrotation Yrotation Zrotation
					JOINT RightToeBase
					{
						OFFSET -0.970200 -13.225400 11.864200
						CHANNELS 3 Xrotation Yrotation Zrotation
						End Site
						{
							OFFSET 0 0 0
						}
					}
				}
			}
		}
	}
	JOINT Hips_virtual
	{
		OFFSET 0.000000 0.000000 0.000000
		CHANNELS 3 Xrotation Yrotation Zrotation
		JOINT Hips
		{
			OFFSET -0.000000 -0.000000 -0.000000
			CHANNELS 3 Xrotation Yrotation Zrotation
			JOINT Spine
			{
				OFFSET 0.000000 7.722000 1.166200
				CHANNELS 3 Xrotation Yrotation Zrotation
				JOINT Spine1
				{
					OFFSET 0.000000 12.024101 0.248800
					CHANNELS 3 Xrotation Yrotation Zrotation
					JOINT Spine2
					{
						OFFSET 0.000000 11.502998 -0.491200
						CHANNELS 3 Xrotation Yrotation Zrotation
						JOINT Neck_virtual
						{
							OFFSET 0.000000 0.000000 0.000000
							CHANNELS 3 Xrotation Yrotation Zrotation
							JOINT Neck
							{
								OFFSET 0.000000 18.430702 -3.123100
								CHANNELS 3 Xrotation Yrotation Zrotation
								JOINT Head
								{
									OFFSET 0.000000 9.051102 1.034000
									CHANNELS 3 Xrotation Yrotation Zrotation
									End Site
									{
										OFFSET 0 0 0
									}
								}
							}
						}
						JOINT LeftShoulder_virtual
						{
							OFFSET 0.000000 0.000000 0.000000
							CHANNELS 3 Xrotation Yrotation Zrotation
							JOINT LeftShoulder
							{
								OFFSET 6.197800 13.665199 -4.064700
								CHANNELS 3 Xrotation Yrotation Zrotation
								JOINT LeftArm
								{
									OFFSET 7.778100 -0.187103 -1.709300
									CHANNELS 3 Xrotation Yrotation Zrotation
									JOINT LeftForeArm
									{
										OFFSET 22.049376 0.000000 0.000000
										CHANNELS 3 Xrotation Yrotation Zrotation
										JOINT LeftHand
										{
											OFFSET 23.009392 0.000000 0.000000
											CHANNELS 3 Xrotation Yrotation Zrotation
											End Site
											{
												OFFSET 0 0 0
											}
										}
									}
								}
							}
						}
						JOINT RightShoulder_virtual
						{
							OFFSET 0.000000 0.000000 0.000000
							CHANNELS 3 Xrotation Yrotation Zrotation
							JOINT RightShoulder
							{
								OFFSET -6.197800 13.665199 -4.064700
								CHANNELS 3 Xrotation Yrotation Zrotation
								JOINT RightArm
								{
									OFFSET -7.778100 -0.187103 -1.709300
									CHANNELS 3 Xrotation Yrotation Zrotation
									JOINT RightForeArm
									{
										OFFSET -22.049376 0.000000 0.000000
										CHANNELS 3 Xrotation Yrotation Zrotation
										JOINT RightHand
										{
											OFFSET -23.009392 0.000000 0.000000
											CHANNELS 3 Xrotation Yrotation Zrotation
											End Site
											{
												OFFSET 0 0 0
											}
										}
									}
								}
							}
						}
					}
				}
			}
		}
	}
}
MOTION
Frames: 13
Frame Time: 0.03333333
-0.250054 70.702072 0.244963 0.000000 0.000000 0.000000 11.695779 -49.489526 11.290280 -64.578851 28.127597 42.221060 45.037943 -20.080992 3.175884 2.542140 0.952379 -10.119030 0.000000 0.000000 0.000000 11.695779 -49.489526 11.290280 -33.975509 -0.459154 -24.258061 53.260128 1.997312 -6.750481 -26.567276 -2.745699 24.293441 0.000000 0.000000 0.000000 11.695779 -49.489526 11.290280 0.000000 0.000001 0.000000 10.970851 2.836720 -2.050395 6.100720 5.566535 -4.284695 0.000000 0.000000 0.000000 -5.786930 6.328145 -3.046189 2.317271 9.363494 -0.265710 0.000000 0.000000 0.000000 -5.786930 6.328145 -3.046189 -1.915073 -16.511774 -2.939003 -10.486665 2.625045 -45.366335 -22.934664 -26.042289 -16.052449 0.000000 0.000000 0.000000 -5.786930 6.328145 -3.046189 -5.102369 24.651548 1.530440 6.852332 -35.149967 57.689233 -21.079530 44.888908 20.017015 0.000000 0.000000 0.000000 
-0.016932 70.791550 0.095598 0.000000 0.000000 0.000000 11.736512 -49.373276 11.110850 -64.740426 28.098259 42.128108 44.607511 -20.182265 3.139254 2.974831 0.976400 -9.969803 0.000000 0.000000 0.000000 11.736512 -49.373276 11.110850 -34.014438 -0.473639 -23.919452 52.956960 1.757133 -6.836505 -26.306830 -2.900106 24.381547 0.000000 0.000000 0.000000 11.736512 -49.373276 11.110850 0.000001 0.000002 -0.000000 10.653490 2.876540 -1.720314 6.270520 5.497052 -4.598448 0.000000 0.000000 0.000000 -5.595391 6.320227 -3.336131 2.640502 9.509904 -0.611380 0.000000 0.000000 0.000000 -5.595391 6.320227 -3.336131 -1.910392 -16.163882 -3.090428 -12.030260 0.880592 -45.319166 -21.770890 -23.471163 -14.157658 0.000000 0.000000 0.000000 -5.595391 6.320227 -3.336131 -5.012405 24.293280 1.216170 6.254668 -34.836465 57.425635 -21.507386 44.701153 20.437176 0.000000 0.000000 0.000000 
0.214792 70.881065 -0.112267 0.000000 0.000000 0.000000 11.578092 -49.327322 11.014948 -64.614696 28.318681 41.901233 43.985701 -20.352977 3.084107 3.502684 1.107206 -9.873202 0.000000 0.000000 0.000000 11.578092 -49.327322 11.014948 -34.079768 -0.405412 -23.794504 52.853288 1.794683 -6.924381 -26.176948 -3.080640 24.312130 0.000000 0.000000 0.000000 11.578092 -49.327322 11.014948 0.000001 0.000004 -0.000001 10.771755 2.799105 -1.869233 6.253146 5.455827 -4.730131 0.000000 0.000000 0.000000 -5.604864 6.319122 -3.448270 2.918538 9.797428 -0.772800 0.000000 0.000000 0.000000 -5.604864 6.319122 -3.448270 -1.950324 -16.377042 -3.316431 -12.793726 0.478074 -45.036191 -20.515371 -22.352264 -13.137821 0.000000 0.000000 0.000000 -5.604864 6.319122 -3.448270 -4.920682 23.574268 1.114868 5.639813 -34.678055 56.669663 -22.473127 45.269643 21.754023 0.000000 0.000000 0.000000 
0.447374 70.970161 -0.354618 0.000000 0.000000 0.000000 11.441065 -49.425230 10.954986 -64.428792 28.537253 41.723266 43.307275 -20.496132 3.025746 4.051046 1.319575 -9.852054 0.000000 0.000000 0.000000 11.441065 -49.425230 10.954986 -34.348741 -0.496872 -23.765356 52.847404 2.090169 -6.999002 -26.116739 -3.203505 24.095721 0.000000 0.000000 0.000000 11.441065 -49.425230 10.954986 0.000001 -0.000003 0.000000 10.904836 2.685511 -2.024464 6.255486 5.389562 -4.873400 0.000000 0.000000 0.000000 -5.586798 6.304855 -3.562655 3.088687 10.429324 -1.660137 0.000000 0.000000 0.000000 -5.586798 6.304855 -3.562655 -2.019133 -15.755237 -4.014506 -14.105701 -0.623448 -44.437644 -18.714578 -20.851314 -11.947947 0.000000 0.000000 0.000000 -5.586798 6.304855 -3.562655 -4.713505 23.018398 0.781703 5.134863 -34.583112 56.017035 -23.493899 45.872134 23.282998 0.000000 0.000000 0.000000 
0.674849 71.056610 -0.628483 0.000000 0.000000 0.000000 11.508000 -50.000195 11.087467 -64.151063 28.689011 41.727378 42.622740 -20.294773 2.986640 4.514135 1.591974 -10.043917 0.000000 0.000000 0.000000 11.508000 -50.000195 11.087467 -34.790241 -0.170593 -23.498137 52.882299 2.627985 -7.088546 -25.918678 -3.354461 23.940028 0.000000 0.000000 0.000000 11.508000 -50.000195 11.087467 0.000000 0.000001 0.000000 10.967372 2.553689 -2.090827 6.354283 5.276298 -5.097351 0.000000 0.000000 0.000000 -5.456689 6.268692 -3.745260 3.317678 11.210762 -2.259807 0.000000 0.000000 0.000000 -5.456689 6.268692 -3.745260 -1.995277 -14.975002 -4.449679 -15.399642 -1.800114 -44.184798 -16.719359 -18.848431 -10.461589 0.000000 0.000000 0.000000 -5.456689 6.268692 -3.745260 -4.584630 21.996484 0.859057 3.917486 -34.011077 54.545785 -24.794657 47.064313 25.390620 0.000000 0.000000 0.000000 
0.895947 71.139755 -0.932608 0.000000 0.000000 0.000000 11.849258 -51.286354 11.473732 -63.729954 28.738981 42.026096 41.974914 -19.539923 2.982869 4.827532 1.897297 -10.530331 0.000000 0.000000 0.000000 11.849258 -51.286354 11.473732 -35.631587 0.424701 -23.169135 52.932422 3.821961 -7.169638 -25.206555 -3.446300 24.248223 0.000000 0.000000 0.000000 11.849258 -51.286354 11.473732 0.000001 0.000001 -0.000000 10.968968 2.403149 -2.078966 6.476599 5.132108 -5.328435 0.000000 0.000000 0.000000 -5.296071 6.214247 -3.930846 3.584029 12.331279 -3.379898 0.000000 0.000000 0.000000 -5.296071 6.214247 -3.930846 -2.015817 -14.208176 -5.194975 -16.027712 -2.045545 -43.591162 -14.809445 -17.988029 -9.625002 0.000000 0.000000 0.000000 -5.296071 6.214247 -3.930846 -4.353530 21.112410 0.723913 2.380103 -32.998751 52.973465 -26.151871 48.354365 27.701420 0.000000 0.000000 0.000000 
1.111307 71.226280 -1.259953 0.000000 0.000000 0.000000 12.479668 -53.191864 12.126400 -63.161601 28.724630 42.578627 41.332429 -18.270256 3.011085 5.034777 2.197782 -11.274843 0.000000 0.000000 0.000000 12.479668 -53.191864 12.126400 -36.781518 1.154527 -22.617492 52.981347 5.360703 -7.244039 -24.421633 -3.327221 24.227772 0.000000 0.000000 0.000000 12.479668 -53.191864 12.126400 0.000001 -0.000002 0.000000 10.974570 2.223388 -2.057462 6.622248 4.954795 -5.562616 0.000000 0.000000 0.000000 -5.105697 6.139137 -4.118088 3.738906 13.663717 -4.400191 0.000000 0.000000 0.000000 -5.105697 6.139137 -4.118088 -1.981547 -13.332536 -5.802921 -15.999505 -1.606218 -43.044026 -13.164499 -18.160964 -9.218390 0.000000 0.000000 0.000000 -5.105697 6.139137 -4.118088 -4.212525 21.033441 1.004113 0.695068 -32.792571 50.817615 -27.747778 50.323864 30.421502 0.000000 0.000000 0.000000 
1.321127 71.316216 -1.606672 0.000000 0.000000 0.000000 13.440830 -55.622124 13.090010 -62.442573 28.685500 43.339627 40.674866 -16.522132 3.069115 5.181813 2.456057 -12.244982 0.000000 0.000000 0.000000 13.440830 -55.622124 13.090010 -38.174200 2.024119 -21.844255 53.000072 7.074555 -7.281039 -23.451096 -3.134198 24.114300 0.000000 0.000000 0.000000 13.440830 -55.622124 13.090010 0.000001 0.000000 0.000000 10.985656 2.015255 -2.027681 6.791153 4.742066 -5.795877 0.000000 0.000000 0.000000 -4.886394 6.040806 -4.305621 3.677265 15.147625 -5.408245 0.000000 0.000000 0.000000 -4.886394 6.040806 -4.305621 -1.905455 -12.288081 -6.402455 -15.552120 -0.697344 -42.440040 -11.847831 -18.918278 -9.054800 0.000000 0.000000 0.000000 -4.886394 6.040806 -4.305621 -3.907342 19.336856 1.080546 -2.074903 -29.817068 48.378623 -28.335292 51.617126 31.991213 0.000000 0.000000 0.000000 
1.525979 71.412369 -1.967602 0.000000 0.000000 0.000000 14.808017 -58.479096 14.440849 -61.569190 28.676799 44.235625 40.131074 -17.055349 2.995950 5.316182 5.380047 -13.434612 0.000000 0.000000 0.000000 14.808017 -58.479096 14.440849 -39.691828 2.996303 -20.773626 52.926603 8.842042 -7.297413 -22.356814 -2.904454 23.706033 0.000000 0.000000 0.000000 14.808017 -58.479096 14.440849 -0.000001 0.000002 0.000000 11.003647 1.779715 -1.988671 6.983142 4.491695 -6.024191 0.000000 0.000000 0.000000 -4.638926 5.917010 -4.492121 3.198364 16.851391 -6.419501 0.000000 0.000000 0.000000 -4.638926 5.917010 -4.492121 -1.767450 -10.956388 -6.848842 -15.155343 0.099810 -42.101242 -10.572634 -19.057734 -8.624093 0.000000 0.000000 0.000000 -4.638926 5.917010 -4.492121 -3.613088 18.723784 1.244315 -4.736844 -27.854372 45.593685 -29.494690 52.631211 34.309225 0.000000 0.000000 0.000000 
1.726550 71.511032 -2.338202 0.000000 0.000000 0.000000 16.704220 -61.659061 16.304018 -60.538132 28.720481 45.249973 39.464389 -16.006871 3.010443 5.479816 7.002038 -14.780270 0.000000 0.000000 0.000000 16.704220 -61.659061 16.304018 -41.401564 3.897148 -19.529831 52.823730 10.863803 -7.229648 -21.259006 -2.542254 23.043977 0.000000 0.000000 0.000000 16.704220 -61.659061 16.304018 -0.000001 -0.000002 -0.000000 11.030131 1.518112 -1.942128 7.198096 4.201451 -6.243563 0.000000 0.000000 0.000000 -4.364128 5.765157 -4.676231 2.940135 18.382664 -7.180791 0.000000 0.000000 0.000000 -4.364128 5.765157 -4.676231 -1.631418 -9.816462 -7.394709 -14.429960 1.351103 -41.630928 -9.278482 -19.606347 -8.354468 0.000000 0.000000 0.000000 -4.364128 5.765157 -4.676231 -3.207086 18.129316 1.155402 -7.657545 -25.490467 42.760676 -29.840837 53.000294 35.960051 0.000000 0.000000 0.000000 
1.923507 71.618553 -2.710411 0.000000 0.000000 0.000000 19.326795 -65.051022 18.875281 -59.509095 28.955528 46.428365 38.890151 -14.774727 3.037301 5.563588 8.543388 -16.138772 0.000000 0.000000 0.000000 19.326795 -65.051022 18.875281 -43.123106 4.684168 -18.026920 52.704796 12.614277 -7.103784 -20.633266 -2.051925 21.676389 0.000000 0.000000 0.000000 19.326795 -65.051022 18.875281 0.000000 0.000000 0.000000 11.066569 1.231677 -1.883905 7.435954 3.869143 -6.450012 0.000000 0.000000 0.000000 -4.062809 5.582872 -4.856652 2.547265 19.839044 -7.476673 0.000000 0.000000 0.000000 -4.062809 5.582872 -4.856652 -1.438124 -8.529046 -7.720714 -13.733665 2.442157 -41.562709 -8.004725 -19.812475 -7.919410 0.000000 0.000000 0.000000 -4.062809 5.582872 -4.856652 -2.804900 17.511220 1.219128 -11.026025 -22.723831 39.514629 -29.815435 53.229416 37.711496 0.000000 0.000000 0.000000 
2.116317 71.728165 -3.082058 0.000000 0.000000 0.000000 22.991115 -68.529829 22.477219 -58.659550 29.460522 47.813209 38.570420 -13.298615 3.085965 5.437972 9.785150 -17.371843 0.000000 0.000000 0.000000 22.991115 -68.529829 22.477219 -44.804269 5.532129 -16.340456 52.493931 14.366495 -6.879478 -20.018900 -1.707178 20.312682 0.000000 0.000000 0.000000 22.991115 -68.529829 22.477219 0.000000 0.000001 0.000000 11.114526 0.923578 -1.798113 7.696712 3.492411 -6.639567 0.000000 0.000000 0.000000 -3.735839 5.367821 -5.032040 2.185387 21.348567 -7.836623 0.000000 0.000000 0.000000 -3.735839 5.367821 -5.032040 -1.262315 -6.987827 -8.290291 -13.326721 3.246134 -41.409197 -6.496708 -19.409987 -7.215875 0.000000 0.000000 0.000000 -3.735839 5.367821 -5.032040 -2.458971 17.163089 1.372357 -13.624276 -19.995898 36.445691 -30.055756 54.073344 39.450145 0.000000 0.000000 0.000000 
2.305001 71.837814 -3.448864 0.000000 0.000000 0.000000 28.207901 -71.951487 27.623331 -58.004876 30.201754 49.332250 38.478103 -11.617056 3.151226 5.129578 10.731581 -18.470937 0.000000 0.000000 0.000000 28.207901 -71.951487 27.623331 -46.443193 6.280098 -14.563707 52.087958 16.210062 -6.630593 -19.083950 -1.341613 19.158623 0.000000 0.000000 0.000000 28.207901 -71.951487 27.623331 0.000000 0.000001 0.000000 11.175350 0.595082 -1.674308 7.980677 3.068874 -6.811687 0.000000 0.000000 0.000000 -3.384998 5.116885 -5.190043 1.740770 22.662510 -8.128683 0.000000 0.000000 0.000000 -3.384998 5.116885 -5.190043 -1.053628 -5.418264 -8.748438 -13.072606 3.747550 -41.542283 -4.682336 -18.553340 -6.367823 0.000000 0.000000 0.000000 -3.384998 5.116885 -5.190043 -2.090554 16.530359 1.454451 -15.833815 -17.327609 33.562607 -29.931217 54.931677 40.860094 0.000000 0.000000 0.000000 
